<svg xmlns="http://www.w3.org/2000/svg" viewBox="0 0 595.12 469.47">
  <g>
    <polygon points="160.49 278.68 233.99 292.18 190.49 191.69 160.49 278.68" fill="#0f507e"/>
    <polygon points="0 0 85.5 73.19 128.99 19.2 0 0" fill="#0f507e"/>
    <polygon points="85.5 73.19 142.49 158.69 128.99 19.2 85.5 73.19" fill="#146aa8"/>
    <polygon points="199.89 374.44 233.99 292.18 160.49 278.68 199.89 374.44" fill="#146aa8"/>
    <polygon points="233.99 292.18 353.98 212.69 190.49 191.69 233.99 292.18" fill="#146aa8"/>
    <polygon points="160.49 469.47 199.89 374.44 145.49 431.68 160.49 469.47" fill="#0f507e"/>
    <polygon points="152.24 362.88 199.89 374.44 160.49 278.68 152.24 362.88" fill="#0f507e"/>
    <polygon points="145.49 431.68 199.89 374.44 199.89 374.44 152.24 362.88 145.49 431.68" fill="#146aa8"/>
    <polygon points="388.48 31.2 418.48 67.19 421.48 44.7 388.48 31.2" fill="#051b2a"/>
    <polygon points="265.49 89.69 361.48 116.69 304.49 31.2 265.49 89.69" fill="#0a3554"/>
    <polygon points="361.48 116.69 418.48 67.19 304.49 31.2 361.48 116.69" fill="#146aa8"/>
    <polygon points="142.49 158.69 251.99 137.69 251.99 137.69 251.99 137.69 361.48 116.69 265.49 89.69 142.49 158.69" fill="#146aa8"/>
    <polygon points="304.49 31.2 418.48 67.19 388.48 31.2 304.49 31.2" fill="#0a3554"/>
    <polygon points="421.48 44.7 418.48 67.19 595.12 44.7 421.48 44.7"/>
    <polygon points="128.99 19.2 142.49 158.69 265.49 89.69 128.99 19.2" fill="#0f507e"/>
    <polygon points="142.49 158.69 190.49 191.69 251.99 137.69 142.49 158.69" fill="#0f507e"/>
    <polygon points="353.98 212.69 361.48 116.69 251.99 137.69 353.98 212.69" fill="#0f507e"/>
    <polygon points="251.99 137.69 251.99 137.69 251.99 137.69 251.99 137.69"/>
    <polygon points="251.99 137.69 190.49 191.69 353.98 212.69 251.99 137.69 251.99 137.69" fill="#4388b9"/>
  </g>
</svg>
